<?xml version="1.0" encoding="UTF-8"?> <svg xmlns="http://www.w3.org/2000/svg" width="780" height="440" viewBox="0 0 780 440"><title>twitter-stats</title><path fill="#0a344f" d="M0 0h780v440H0z"></path><path d="M205.6 313.8h-7.9V299l-23 23.1 23 23v-14.8h11.2c7.9 0 14.7 3.7 18.5 9.9v-4.6a21.8 21.8 0 0 0-21.8-21.8zM482.9 85l11.3 14h-7.5v8.4h9.8a3.2 3.2 0 0 1 3.2 3.2 3.2 3.2 0 0 1-3.2 3.3h-17.3V99h-7.5zM510.4 113.9l-11.2-14h7.5v-8.4h-9.8a3.2 3.2 0 0 1-3.3-3.2 3.3 3.3 0 0 1 3.3-3.3h17.3v14.9h7.4z" fill="#56adf5"></path><path d="M488.4 189a78.9 78.9 0 0 1-23.2 6.3A41.1 41.1 0 0 0 483 173a81.5 81.5 0 0 1-25.7 9.8 40.3 40.3 0 0 0-69.8 27.6 39.3 39.3 0 0 0 1 9.2 114.5 114.5 0 0 1-83.2-42.2 40.3 40.3 0 0 0 12.5 53.9 40.7 40.7 0 0 1-18.3-5v.5a40.4 40.4 0 0 0 32.4 39.6 41.7 41.7 0 0 1-10.6 1.4 46.7 46.7 0 0 1-7.6-.7 40.3 40.3 0 0 0 37.7 28 81.1 81.1 0 0 1-50.1 17.3 77.7 77.7 0 0 1-9.7-.6 114.1 114.1 0 0 0 61.9 18.2c74.3 0 114.9-61.6 114.9-114.9l-.2-5.2a81.9 81.9 0 0 0 20.2-20.9z" fill="#1da1f2" fill-rule="evenodd"></path><path d="M468.1 306.9L432 279.8v45.1c0 .6.8.9 1.1.4l10.9-14.6 8.8 17.7a1.5 1.5 0 0 0 2.1.7l2.8-1.4a1.6 1.6 0 0 0 .7-2.1l-8.8-17.6h18.1c.6 0 .9-.8.4-1.1z" fill="#fff"></path><path d="M266.6 117.3a11.6 11.6 0 0 0-16.4 0l-1.5 1.9a13.3 13.3 0 0 0-1.4-1.9 11.6 11.6 0 0 0-16.4 0c-4.5 4.5-4.5 12-.2 16.2l18 17.8 18.1-17.8a11.6 11.6 0 0 0-.2-16.2zM565.7 281.2h-6.8v-6.8h-3.4v6.8h-6.8v3.4h6.8v6.8h3.4v-6.8h6.8zm28.5 14.7c-1.7-.6-3.8-1.1-5.1-2.1s-1.2-1.7-.6-3.4 4.1-3.7 4.1-12.1c0-11-9-10.9-9.9-10.9s-9.9-.1-9.9 10.9c0 8.4 3 9.6 4.1 12.5s.3 2.5-.6 3.2-3.3 1.4-5.1 2-8.9 2.1-8.9 6.6v2.4h40.8v-2.4c0-4.5-5.8-5.7-8.9-6.7z" fill="#56adf5"></path><circle cx="522" cy="233" r="3" fill="#002138"></circle><circle cx="633" cy="184" r="3" fill="#002138"></circle><circle cx="583" cy="133" r="3" fill="#002138"></circle><circle cx="135" cy="170" r="3" fill="#002138"></circle><circle cx="423" cy="120" r="3" fill="#002138"></circle><circle cx="311" cy="93" r="3" fill="#002138"></circle><circle cx="214" cy="250" r="3" fill="#002138"></circle><circle cx="508" cy="355" r="3" fill="#002138"></circle><circle cx="270" cy="358" r="3" fill="#002138"></circle></svg> 